# xmcd
#
# Track frame offsets:
#	150
#	15170
#	32835
#	43443
#	72985
#	96761
#	111798
#	124935
#	135643
#	150167
#	164088
#	179662
#	194021
#	206454
#	220624
#	240080
#	285547
#
# Disc length: 3963 seconds
#
# Revision: 2251065110
# Processed by: cddbd v1.5.2PL0 Copyright (c) Steve Scherf et al.
# Submitted via: EZCDAudioConverter 8.5.0.1
#
DISCID=ef0f7911
DTITLE=V/A - Horn Rock and Funky Guitar Grooves 1968-1974
DYEAR=1900
DGENRE=
TTITLE0=Paul Butterfield Blues Band - Buddy's Advice
TTITLE1=Al Kooper - Toe Hold
TTITLE2=Delaney and Bonnie - It's Been A Long Time Coming
TTITLE3=Cold Blood - Understanding
TTITLE4=Lighthouse - One Fine Morning [LP Version]
TTITLE5=Blood, Sweat and Tears - Roller Coaster
TTITLE6=Tower Of Power - Clever Girl
TTITLE7=Donnie Brooks - Blow Your Mind
TTITLE8=Chase - Run Back To Mama
TTITLE9=Hammer - Tuane
TTITLE10=Crystal Mansion - Somebody Oughta' Turn Your Head Around
TTITLE11=The Flock - The Clown (Part 1)
TTITLE12=Tobias Wood Henderson - Gypsy Boy ll
TTITLE13=Black Magic - Shoes
TTITLE14=The Electric Flag - Make Your Move
TTITLE15=The Sons - Boomp, Boomp, Chomp
TTITLE16=American Sound Ltd. - Aunt Marie
EXTD=
EXTT0=
EXTT1=
EXTT2=
EXTT3=
EXTT4=
EXTT5=
EXTT6=
EXTT7=
EXTT8=
EXTT9=
EXTT10=
EXTT11=
EXTT12=
EXTT13=
EXTT14=
EXTT15=
EXTT16=
PLAYORDER=
